<svg width="40" height="40" viewBox="0 0 40 40" fill="none" xmlns="http://www.w3.org/2000/svg">
<mask id="mask0_284_58060" style="mask-type:luminance" maskUnits="userSpaceOnUse" x="0" y="0" width="40" height="40">
<path d="M39.9588 0H0V40H39.9588V0Z" fill="white"/>
</mask>
<g mask="url(#mask0_284_58060)">
<path d="M19.9794 0C8.94363 0 0 8.95285 0 20C0 31.0471 8.94363 40 19.9794 40C31.0152 40 39.9588 31.0471 39.9588 20C39.9588 8.95285 31.0152 0 19.9794 0ZM19.9794 32.2517C13.2268 32.2517 7.74033 26.7685 7.74033 20C7.74033 13.2404 13.2179 7.74832 19.9794 7.74832C26.7409 7.74832 32.2184 13.2315 32.2184 20C32.2184 26.7596 26.732 32.2517 19.9794 32.2517Z" fill="url(#paint0_linear_284_58060)"/>
<path d="M19.9793 0C18.3809 0 16.8365 0.188764 15.3458 0.548315C16.8634 0.880902 18.3899 1.36629 19.8895 2.02247C30.0094 6.42697 35.3343 16.6203 31.7783 24.791C28.2314 32.9529 17.1507 36 7.03083 31.5955C5.1631 30.7775 3.45699 29.7708 1.93945 28.6022C5.15411 35.3438 12.0234 40.009 19.9793 40.009C31.0151 40.009 39.9587 31.0562 39.9587 20.009C39.9587 8.96179 31.0151 0 19.9793 0Z" fill="url(#paint1_linear_284_58060)"/>
<path d="M21.5778 33.2858C10.542 33.2858 1.59835 24.3329 1.59835 13.2858C1.59835 12.8813 1.61631 12.4768 1.63427 12.0723C0.583668 14.4992 0 17.1869 0 20.0004C0 31.0476 8.94363 40.0004 19.9794 40.0004C30.6112 40.0004 39.2943 31.6947 39.9229 21.2139C36.8519 28.315 29.794 33.2858 21.5778 33.2858Z" fill="url(#paint2_linear_284_58060)"/>
</g>
<defs>
<linearGradient id="paint0_linear_284_58060" x1="0" y1="20" x2="39.9588" y2="20" gradientUnits="userSpaceOnUse">
<stop stop-color="#5FA7FF"/>
<stop offset="0.4612" stop-color="#ABD3F3"/>
<stop offset="0.8242" stop-color="#E1F3EA"/>
<stop offset="1" stop-color="#F6FFE6"/>
</linearGradient>
<linearGradient id="paint1_linear_284_58060" x1="1.93694" y1="20" x2="39.9587" y2="20" gradientUnits="userSpaceOnUse">
<stop offset="0.5" stop-color="#A6D1F4"/>
<stop offset="0.5886" stop-color="#9CCBF2"/>
<stop offset="0.7376" stop-color="#82BAED"/>
<stop offset="0.9275" stop-color="#589FE4"/>
<stop offset="1" stop-color="#4694E0"/>
</linearGradient>
<linearGradient id="paint2_linear_284_58060" x1="0" y1="26.0363" x2="39.9191" y2="26.0363" gradientUnits="userSpaceOnUse">
<stop stop-color="#0071BC"/>
<stop offset="0.1156" stop-color="#147BC6"/>
<stop offset="0.2889" stop-color="#2A86D1"/>
<stop offset="0.4777" stop-color="#3A8EDA"/>
<stop offset="0.6916" stop-color="#4393DE"/>
<stop offset="0.9846" stop-color="#4694E0"/>
</linearGradient>
</defs>
</svg>
